<?xml version="1.0" encoding="utf-8"?>
<!-- Svg Vector Icons : http://www.onlinewebfonts.com/icon -->
<!DOCTYPE svg PUBLIC "-//W3C//DTD SVG 1.1//EN" "http://www.w3.org/Graphics/SVG/1.1/DTD/svg11.dtd">
<svg version="1.1" xmlns="http://www.w3.org/2000/svg" xmlns:xlink="http://www.w3.org/1999/xlink" x="0px" y="0px"
    viewBox="0 0 1000 1000" enable-background="new 0 0 1000 1000" xml:space="preserve">
    <metadata> Svg Vector Icons : http://www.onlinewebfonts.com/icon </metadata>
    <g>
        <path
            d="M126.4,990V10H449c122.5,0,216.4,24.5,285.8,69.4c69.4,44.9,102.1,114.3,102.1,200.1c0,44.9-12.3,89.8-32.7,122.5c-20.4,36.8-57.2,65.3-102.1,81.7c57.2,12.2,102.1,36.7,130.7,77.6c28.6,40.8,40.8,85.7,40.8,134.8c0,93.9-32.7,167.4-98,216.4C710.3,961.4,620.5,990,498,990H126.4z M351,418.3h89.8c53.1,0,93.9-8.2,122.5-28.6c28.6-20.4,40.8-49,40.8-85.7c0-40.8-12.3-73.5-40.8-89.8c-28.6-16.3-65.3-28.6-118.4-28.6H351V418.3z M351,569.4v245h147c49,0,85.8-8.2,110.3-28.6c24.5-20.4,36.8-49,36.8-89.8c0-40.8-12.3-73.5-32.7-93.9c-20.4-20.4-57.2-32.7-106.2-32.7H498H351z" />
    </g>
</svg>
