<?xml version="1.0" encoding="utf-8"?>
<!-- Svg Vector Icons : http://www.onlinewebfonts.com/icon -->
<!DOCTYPE svg PUBLIC "-//W3C//DTD SVG 1.1//EN" "http://www.w3.org/Graphics/SVG/1.1/DTD/svg11.dtd">
<svg version="1.1" xmlns="http://www.w3.org/2000/svg" xmlns:xlink="http://www.w3.org/1999/xlink" x="0px" y="0px"
    viewBox="0 0 1000 1000" enable-background="new 0 0 1000 1000" xml:space="preserve">
    <metadata> Svg Vector Icons : http://www.onlinewebfonts.com/icon </metadata>
    <g>
        <g transform="translate(0.000000,511.000000) scale(0.100000,-0.100000)">
            <path
                d="M398.6,4087.2c-165.6-58.3-293.9-233.3-296.3-401.2c0-42,184.3-625.2,408.2-1299.4c224-674.2,408.2-1238.7,408.2-1255c0-16.3-163.3-193.6-363.9-391.9c-606.5-601.9-606.5-657.8,0-1259.7C755.5-718.3,918.8-898,918.8-916.6c0-18.7-184.3-585.5-408.2-1257.4c-223.9-671.9-408.2-1257.4-408.2-1301.7c0-165.6,149.3-354.6,321.9-403.6c126-35,2584.7-32.7,2689.7,4.7c196,65.3,300.9,210,300.9,417.5c0,158.7-72.3,287-210,366.3l-105,63l-972.8,7c-536.5,4.7-975.1,14-975.1,23.3c0,9.3,156.3,489.9,349.9,1066.1c356.9,1070.8,387.2,1199.1,324.2,1325c-14,28-175,200.6-354.6,384.9l-331.3,331.3l331.3,333.6c179.6,182,340.6,354.6,354.6,382.6c63,126,32.7,254.3-324.2,1325c-191.3,576.2-349.9,1056.7-349.9,1066.1c0,9.3,438.6,18.7,975.1,23.3l972.8,7l105,63c137.6,79.3,210,207.6,210,366.2c0,207.6-105,352.3-300.9,417.6C2990.3,4138.5,517.6,4131.5,398.6,4087.2z" />
            <path
                d="M6883.7,4098.8c-352.3-107.3-405.9-608.9-81.6-793.1l100.3-58.3l975.1-7c534.2-4.7,972.8-14,972.8-23.3c0-9.3-156.3-489.9-349.9-1066.1c-356.9-1070.7-387.2-1199-324.3-1325c14-28,175-200.6,354.6-382.6l331.3-333.6l-331.3-331.3c-179.6-184.3-340.6-356.9-354.6-384.9c-63-126-32.6-254.3,324.3-1325c193.6-576.2,349.9-1056.7,349.9-1066.1c0-9.3-438.6-18.7-972.8-23.3l-975.1-7l-105-63c-275.3-160.9-284.6-559.9-18.7-734.8l98-65.3l1301.7-7c863.1-4.7,1334.4,2.3,1395,18.7c175,46.7,324.3,235.6,326.6,408.2c0,39.7-184.3,620.5-408.2,1294.7c-223.9,674.2-408.2,1241-408.2,1259.7c0,18.7,163.3,198.3,363.9,396.6C9820.7-149.1,9900-39.5,9900,109.8c0,149.3-79.3,258.9-452.6,629.8c-200.6,198.3-363.9,377.9-363.9,396.6s184.3,585.5,408.2,1259.7s408.2,1255,408.2,1294.7c-2.3,170.3-151.6,359.2-321.9,408.2C9473.1,4126.8,6981.7,4126.8,6883.7,4098.8z" />
            <path
                d="M4669.9,2724.8c-249.6-81.6-494.5-279.9-629.9-515.5c-182-312.6-182-760.5,0-1073.1C4415.6,487.7,5292.8,380.4,5799,921.6c205.3,219.3,298.6,452.6,298.6,751.2c0,384.9-189,723.2-515.6,935.4C5332.4,2766.8,4954.5,2815.8,4669.9,2724.8z" />
            <path
                d="M4662.9,46.8c-471.2-167.9-758.2-569.2-758.2-1059.1c0-417.6,228.6-786.2,604.2-977.4l144.6-72.3l-100.3-79.3c-56-44.3-161-114.3-235.6-156.3c-319.6-179.6-412.9-291.6-412.9-492.2c0-265.9,216.9-459.6,478.2-429.2c63,4.7,177.3,53.7,296.3,121.3c711.5,405.9,1187.4,993.8,1362.3,1684.3c95.7,377.9,63,718.5-91,972.8C5850.3-277.4,5652-100.2,5467.7-11.5c-163.3,79.3-191.3,86.3-431.6,91C4835.5,86.5,4753.9,77.1,4662.9,46.8z" />
        </g>
    </g>
</svg>
