<?xml version="1.0" encoding="utf-8"?>
<!-- Svg Vector Icons : http://www.onlinewebfonts.com/icon -->
<!DOCTYPE svg PUBLIC "-//W3C//DTD SVG 1.1//EN" "http://www.w3.org/Graphics/SVG/1.1/DTD/svg11.dtd">
<svg version="1.1" xmlns="http://www.w3.org/2000/svg" xmlns:xlink="http://www.w3.org/1999/xlink" x="0px" y="0px"
    viewBox="0 0 1000 1000" enable-background="new 0 0 1000 1000" xml:space="preserve">
    <metadata> Svg Vector Icons : http://www.onlinewebfonts.com/icon </metadata>
    <g>
        <path
            d="M873.6,451.8c6.1-6.1,12.3-12.3,18.4-12.3h85.7c6.1,0,12.3-6.1,12.3-12.2v-98c0-6.1-6.1-12.2-12.3-12.2h-98c-6.1,0-18.4,6.1-18.4,12.2L757.2,439.5c-6.1,6.1-12.2,6.1-12.2,0l-55.1-110.3c-6.1-6.1-12.3-12.2-18.4-12.2H512.2c-6.1,0-12.3,6.1-12.3,12.2v98c0,6.1,6.1,12.2,12.3,12.2h98c6.1,0,12.3,6.1,18.4,12.3l36.7,79.6v18.4L555.1,678.4c-6.1,0-12.2,6.1-18.4,6.1H451c-6.1,0-12.3,6.1-12.3,12.2v98c0,6.1,6.1,12.3,12.3,12.3h98c6.1,0,18.4-6.1,18.4-12.3l140.9-159.2c6.1-6.1,12.3-6.1,12.3,0l79.6,159.2c0,6.1,12.3,12.3,18.4,12.3h98c6.1,0,12.3-6.1,12.3-12.3v-98c0-6.1-6.1-12.2-12.3-12.2h-36.7c-6.1,0-12.2-6.1-18.4-12.3l-61.3-122.5v-18.4L873.6,451.8L873.6,451.8L873.6,451.8z M371.4,72c-30.6,24.5-61.3,61.3-79.6,122.5L261.1,317H83.5c-6.1,0-12.3,6.1-12.3,12.2v98c0,6.1,6.1,12.2,12.3,12.2h147L138.6,807c-18.4,73.5-67.4,61.3-67.4,61.3H10v122.5h61.3c49,0,98-6.1,122.5-36.8c30.6-30.6,49-85.8,61.3-147l91.9-367.5h140.9c6.1,0,12.3-6.1,12.3-12.2v-98c0-6.1-6.1-12.2-12.3-12.2H377.5l30.6-116.4c6.1-18.4,36.8-49,55.1-61.3c67.4-49,159.3-18.4,220.5-6.1V29.1C622.5,16.9,487.8-26,371.4,72L371.4,72L371.4,72z" />
    </g>
</svg>
