<?xml version="1.0" encoding="utf-8"?>
<!-- Svg Vector Icons : http://www.onlinewebfonts.com/icon -->
<!DOCTYPE svg PUBLIC "-//W3C//DTD SVG 1.1//EN" "http://www.w3.org/Graphics/SVG/1.1/DTD/svg11.dtd">
<svg version="1.1" xmlns="http://www.w3.org/2000/svg" xmlns:xlink="http://www.w3.org/1999/xlink" x="0px" y="0px"
    viewBox="0 0 1000 1000" enable-background="new 0 0 1000 1000" xml:space="preserve">
    <metadata> Svg Vector Icons : http://www.onlinewebfonts.com/icon </metadata>
    <g>
        <g>
            <path
                d="M553.9,572.6l36.3-145.2H446.1l-36.3,145.2H553.9z M989.6,286.7l-31.8,127.1c-2.6,9.1-8.5,13.6-17.6,13.6H754.7l-36.3,145.2h176.4c5.7,0,10.4,2.3,14.2,6.8c3.8,5.3,4.9,10.6,3.4,15.9l-31.8,127.1c-1.9,9.1-7.8,13.6-17.6,13.6H677.6l-46,186.1c-2.6,9.1-8.5,13.6-17.6,13.6H487c-6.1,0-11-2.3-14.7-6.8c-3.4-4.5-4.5-9.8-3.4-15.9L513,736H369l-46,186.1c-2.6,9.1-8.5,13.6-17.6,13.6H177.8c-5.7,0-10.4-2.3-14.2-6.8c-3.4-4.5-4.5-9.8-3.4-15.9l44.2-177H28c-5.7,0-10.4-2.3-14.2-6.8c-3.4-4.5-4.5-9.8-3.4-15.9l31.8-127.1c2.6-9.1,8.5-13.6,17.6-13.6h185.5l36.3-145.2H105.2c-5.7,0-10.4-2.3-14.2-6.8c-3.8-5.3-4.9-10.6-3.4-15.9l31.8-127.1c1.9-9.1,7.8-13.6,17.6-13.6h185.5l46-186.1c2.6-9.1,8.7-13.6,18.2-13.6h127.1c5.7,0,10.4,2.3,14.2,6.8c3.4,4.5,4.5,9.8,3.4,15.9L487,264H631l46-186.1c2.6-9.1,8.7-13.6,18.2-13.6h127.1c5.7,0,10.4,2.3,14.2,6.8c3.4,4.5,4.5,9.8,3.4,15.9l-44.2,177H972c5.7,0,10.4,2.3,14.2,6.8C989.6,275.4,990.7,280.6,989.6,286.7L989.6,286.7z" />
        </g>
    </g>
</svg>
