<?xml version="1.0" encoding="utf-8"?>
<!-- Svg Vector Icons : http://www.onlinewebfonts.com/icon -->
<!DOCTYPE svg PUBLIC "-//W3C//DTD SVG 1.1//EN" "http://www.w3.org/Graphics/SVG/1.1/DTD/svg11.dtd">
<svg version="1.1" xmlns="http://www.w3.org/2000/svg" xmlns:xlink="http://www.w3.org/1999/xlink" x="0px" y="0px"
    viewBox="0 0 1000 1000" enable-background="new 0 0 1000 1000" xml:space="preserve">
    <metadata> Svg Vector Icons : http://www.onlinewebfonts.com/icon </metadata>
    <g>
        <path
            d="M101.9,438.7H40.6c-16.9,0-30.6,13.7-30.6,30.7v61.3c0,16.9,13.7,30.7,30.6,30.7h61.2c16.9,0,30.6-13.7,30.6-30.7v-61.3C132.5,452.4,118.8,438.7,101.9,438.7L101.9,438.7z M959.4,469.3H316.2c-16.9,0-30.6,13.7-30.6,30.7c0,16.9,13.7,30.7,30.6,30.7h643.1c16.9,0,30.6-13.7,30.6-30.7C990,483.1,976.3,469.3,959.4,469.3z M101.9,683.9H40.6c-16.9,0-30.6,13.7-30.6,30.7v61.3c0,16.9,13.7,30.7,30.6,30.7h61.2c16.9,0,30.6-13.7,30.6-30.7v-61.3C132.5,697.6,118.8,683.9,101.9,683.9z M959.4,714.6H316.2c-16.9,0-30.6,13.7-30.6,30.7c0,16.9,13.7,30.7,30.6,30.7h643.1c16.9,0,30.6-13.7,30.6-30.7S976.3,714.6,959.4,714.6z M101.9,193.5H40.6c-16.9,0-30.6,13.7-30.6,30.7v61.3c0,16.9,13.7,30.7,30.6,30.7h61.2c16.9,0,30.6-13.7,30.6-30.7v-61.3C132.5,207.2,118.8,193.5,101.9,193.5L101.9,193.5z M316.2,285.4h643.1c16.9,0,30.6-13.7,30.6-30.7c0-16.9-13.7-30.7-30.6-30.7H316.2c-16.9,0-30.6,13.7-30.6,30.7C285.6,271.7,299.3,285.4,316.2,285.4z" />
    </g>
</svg>
