<?xml version="1.0" encoding="utf-8"?>
<!-- Svg Vector Icons : http://www.onlinewebfonts.com/icon -->
<!DOCTYPE svg PUBLIC "-//W3C//DTD SVG 1.1//EN" "http://www.w3.org/Graphics/SVG/1.1/DTD/svg11.dtd">
<svg version="1.1" xmlns="http://www.w3.org/2000/svg" xmlns:xlink="http://www.w3.org/1999/xlink" x="0px" y="0px" viewBox="0 0 1000 1000" enable-background="new 0 0 1000 1000" xml:space="preserve">
<metadata> Svg Vector Icons : http://www.onlinewebfonts.com/icon </metadata>
<g><path d="M463.2,919.6H10v-343c0-128.6,24.5-226.6,79.6-300.1c55.1-73.5,147-140.9,275.6-196l98,183.8c-79.6,36.8-134.7,73.5-165.4,110.3c-30.6,36.7-49,79.6-49,128.6h214.4V919.6L463.2,919.6z M990,919.6H536.8v-343c0-128.6,24.5-226.6,79.6-300.1c55.1-73.5,147-140.9,275.6-196l98,183.8c-79.6,36.8-134.8,73.5-165.4,110.3c-30.6,36.7-49,79.6-49,128.6H990V919.6z"/></g>
</svg>