<?xml version="1.0" encoding="utf-8"?>
<!-- Svg Vector Icons : http://www.onlinewebfonts.com/icon -->
<!DOCTYPE svg PUBLIC "-//W3C//DTD SVG 1.1//EN" "http://www.w3.org/Graphics/SVG/1.1/DTD/svg11.dtd">
<svg version="1.1" xmlns="http://www.w3.org/2000/svg" xmlns:xlink="http://www.w3.org/1999/xlink" x="0px" y="0px"
    viewBox="0 0 1000 1000" enable-background="new 0 0 1000 1000" xml:space="preserve">
    <metadata> Svg Vector Icons : http://www.onlinewebfonts.com/icon </metadata>
    <g>
        <path
            d="M484.6,990c-47.2,0-87.2-13.8-118.8-41c-31.8-27.4-47.9-59.4-47.9-95.1c0-17.3,6.3-32.3,18.8-44.5c12.7-12.4,28.5-18.9,45.8-18.9c17.2,0,32.7,6.1,44.8,17.7c11.9,11.5,18,26.6,18,45.1c0,10.8-1.8,22.8-5.3,35.6c-3.5,12.6-4.2,19.1-4.2,22.3c0,3.5,0.9,7.7,7.4,12.2c12.2,8.4,26.9,12.5,44.9,12.5c21.6,0,40.9-7.5,58.9-23c17.8-15.2,26.4-30.9,26.4-47.9c0-18.9-5-35.2-15.4-50c-17.5-24.7-50.6-53.5-98.2-85.8c-76.4-51.2-127.4-95.5-155.6-135.4c-21.9-31.3-33-65-33-100.2c0-35.5,11.6-70.8,34.5-104.9c19.6-29.2,48.6-55.6,86.4-78.6c-20.2-21.7-35.3-42.2-45.1-61c-12.3-23.7-18.6-48.2-18.6-72.9c0-45.8,18.1-85.3,53.8-117.6C418.1,26.4,462.6,10,514.7,10c47.9,0,88.2,13.5,119.8,40.1c31.9,26.9,48.1,58.3,48.1,93.4c0,17.9-6.7,33.8-19.9,47.5l-0.3,0.3c-7.6,7.6-21.6,16.6-45,16.6c-18.3,0-34.4-6-46.5-17.4c-12-11.3-18.1-24.8-18.1-40.2c0-6.6,1.6-16.7,5.1-31.6c1.7-7.1,2.5-13.5,2.5-19.4c0-9.9-3.6-17.5-11.2-23.9c-7.9-6.6-19.2-9.9-34.6-9.9c-23.8,0-43.3,7.2-59.7,22.1c-16.4,14.9-24.4,32.6-24.4,54.1c0,19.3,4.4,35.2,13,47.2c16.4,22.9,44.8,47.6,84.4,73.5c80.6,52.2,136.8,100.2,167,142.4c22.3,31.7,33.6,65.4,33.6,100.3c0,35-11.4,70.3-33.8,105c-19.3,29.8-48.5,56.7-87,80.1c21.2,22.5,36.2,42.1,45.5,59.9c11.6,22,17.4,46,17.4,71.3c0,47.5-18.1,87.9-53.8,120C581.3,973.7,536.7,990,484.6,990L484.6,990z M437.2,351c-46.2,27.7-68.6,59.5-68.6,97c0,21.8,6.2,41.3,19,59.6c19.1,26.7,56.7,59.4,111.8,96.9c23.3,15.9,44.4,31.3,62.8,46c47-28.2,69.8-59.7,69.8-95.9c0-19.7-7.8-40.9-23.2-63.1c-16.1-23.1-50.6-53.4-102.5-89.9C479.2,383,456,365.9,437.2,351L437.2,351z" />
    </g>
</svg>
