<?xml version="1.0" encoding="utf-8"?>
<!-- Svg Vector Icons : http://www.onlinewebfonts.com/icon -->
<!DOCTYPE svg PUBLIC "-//W3C//DTD SVG 1.1//EN" "http://www.w3.org/Graphics/SVG/1.1/DTD/svg11.dtd">
<svg version="1.1" xmlns="http://www.w3.org/2000/svg" xmlns:xlink="http://www.w3.org/1999/xlink" x="0px" y="0px"
    viewBox="0 0 1000 1000" enable-background="new 0 0 1000 1000" xml:space="preserve">
    <metadata> Svg Vector Icons : http://www.onlinewebfonts.com/icon </metadata>
    <g>
        <g transform="translate(0.000000,511.000000) scale(0.100000,-0.100000)">
            <path
                d="M1981.5,4981.4c-6.1-14.3-6.1-1227-2-2693.4c8.2-2865.1,6.1-2818.1,116.6-3366.2c220.9-1090,824.2-1840.6,1724-2143.2c541.9-182,1263.9-216.8,1879.4-90C6854.9-3078.3,7615.7-2297,7891.7-1061.8c124.7,562.4,122.7,511.3,124.7,3413.2v2648.4l-525.6,6.1l-525.6,4.1l-8.2-2683.1c-6.1-2625.9-8.2-2691.3-49.1-2951c-102.3-615.6-282.2-1034.8-586.9-1355.9c-255.6-270-560.3-433.6-942.8-505.1c-255.6-49.1-734.2-32.7-948.9,28.6C3717.7-2248,3274-1663.1,3108.3-716.2c-61.4,357.9-71.6,766.9-71.6,3237.4V5010h-521.5C2091.9,5010,1989.6,5003.9,1981.5,4981.4z" />
            <path
                d="M1973.3-4407.6v-378.3l149.3-2c79.8,0,1439.7-2.1,3020.6-2.1h2873.3l6.1,380.4l4.1,380.4H5000H1973.3V-4407.6z" />
        </g>
    </g>
</svg>
